<svg width="24" height="24" viewBox="0 0 24 24" fill="none" xmlns="http://www.w3.org/2000/svg">
<path d="M18.9187 23.8125H19.5375C20.6625 23.8125 21.7312 23.3625 22.4625 22.5188C23.25 21.6188 23.55 20.4 23.2875 19.2375L19.1062 0.618756C19.05 0.337506 18.7875 0.150006 18.4875 0.187506C18.3562 0.206256 18.2437 0.262506 18.1687 0.356256C18.0187 0.506256 17.6812 0.843756 17.4187 1.10626C16.875 1.65001 16.1625 2.00626 15.3937 2.04376C14.5125 2.10001 13.6687 1.78126 13.0312 1.16251L12.225 0.356256C12.1312 0.262506 12.0187 0.206256 11.9062 0.187506C11.6062 0.150006 11.3437 0.356256 11.2875 0.618756L7.10625 19.2375C6.99375 19.7438 6.99374 20.2688 7.08749 20.7563C7.14374 21.0938 7.25625 21.4313 7.42499 21.7313C7.55624 21.9938 7.48125 22.3125 7.25625 22.4625C7.1625 22.5375 7.05 22.5563 6.9375 22.5563C6.73125 22.5563 6.54375 22.4438 6.43125 22.2563C6.1875 21.7875 6.0375 21.2813 5.9625 20.7563C5.94375 20.6063 5.83124 20.475 5.68125 20.4375L3.075 19.8375C2.475 19.7063 1.85625 19.8375 1.36875 20.2313C0.862496 20.6438 0.581246 21.2625 0.618746 21.9188C0.674996 22.9875 1.6125 23.8125 2.7 23.8125H16.8937C16.9125 23.8125 16.95 23.8125 16.9687 23.8125C16.9875 23.8125 17.0062 23.8125 17.025 23.8125C17.0437 23.8125 17.0437 23.8125 17.0625 23.8125C17.3625 23.7375 17.5875 23.4188 17.475 23.0813C17.4 22.8563 17.175 22.7063 16.9312 22.7063C16.6312 22.7063 16.3875 22.4438 16.3875 22.1438C16.3875 22.125 16.3875 22.1063 16.3875 22.0688L16.2937 18.5625C16.2937 18.2438 16.5375 18 16.8562 18C17.1562 18 17.4187 18.2438 17.4187 18.5625L17.4375 21.6563C18.0937 21.8813 18.5625 22.5188 18.5625 23.25C18.5625 23.3063 18.5625 23.3438 18.5625 23.4C18.5437 23.625 18.6937 23.8125 18.9187 23.8125ZM12.75 6.37501C12.75 6.05626 12.9937 5.81251 13.3125 5.81251C13.6312 5.81251 13.875 6.05626 13.875 6.37501C13.875 6.69376 13.6312 6.93751 13.3125 6.93751C12.9937 6.93751 12.75 6.69376 12.75 6.37501ZM13.5 22.575C13.1812 22.575 12.9375 22.3313 12.9375 22.0125L12.9187 18.5625C12.9187 18.2438 13.1625 18 13.4812 18C13.8 18 14.0437 18.2438 14.0437 18.5625L14.0625 22.0125C14.0625 22.3313 13.8187 22.575 13.5 22.575ZM17.0625 6.93751C16.7437 6.93751 16.5 6.69376 16.5 6.37501C16.5 6.05626 16.7437 5.81251 17.0625 5.81251C17.3812 5.81251 17.625 6.05626 17.625 6.37501C17.625 6.69376 17.3812 6.93751 17.0625 6.93751Z" fill="white"/>
</svg>
