<svg width="24" height="24" viewBox="0 0 24 24" fill="none" xmlns="http://www.w3.org/2000/svg">
<path d="M2.47501 9.16875C2.86876 9.45 3.35626 9.4875 3.67501 9.4875C3.95626 9.4875 5.19376 9.45 5.47501 9.43125C5.75626 9.4125 6.01876 9.375 6.26251 9.375C6.58126 9.375 6.78751 9.4125 6.91876 9.50625C7.29376 10.3688 6.30001 16.2375 5.81251 20.1937C5.81251 20.2125 5.81251 20.2125 5.81251 20.2313C5.68126 21.2625 5.53126 22.0875 5.38126 22.6875H4.27501C3.99376 22.6875 3.75001 22.875 3.69376 23.1375C3.61876 23.4937 3.90001 23.8125 4.23751 23.8125H4.98751H8.06251C8.28751 23.8125 8.45626 23.625 8.43751 23.4188C8.41876 23.25 8.43751 23.0812 8.47501 22.9125C8.64376 22.125 9.37501 21.5812 10.2 21.5812H12.2813C12.2625 21.525 12.2438 21.4688 12.2438 21.4125C12.075 20.5125 12.2625 19.5938 12.7125 18.9938C12.8813 18.7688 13.2 18.675 13.4438 18.825C13.7625 18.9937 13.8188 19.4062 13.6125 19.6688C13.35 20.0063 13.2375 20.625 13.35 21.225C13.3688 21.3375 13.4063 21.4875 13.4625 21.6375C13.6313 22.0875 13.3688 22.5938 12.9 22.6875C12.8813 22.7062 12.8438 22.7062 12.7688 22.7062H10.1438C9.86251 22.7062 9.61876 22.8937 9.56251 23.175C9.50626 23.4937 9.71251 23.7563 9.99376 23.8312L15.7125 23.8125H15.8063C17.6625 23.8125 18.9375 22.9125 19.425 21.2812C19.5 21 19.575 20.7188 19.6125 20.4375C19.8375 18.8625 18.9 16.6125 16.8188 13.7438C15.2813 11.625 13.6313 9.8625 13.3125 9.54375L12 8.0625C12.3188 7.65 12.3188 7.4625 12.3188 7.36875C12.3563 6.3 10.95 2.1 9.63751 0.73125C9.31876 0.375 8.96251 0.1875 8.60626 0.1875C8.53126 0.1875 8.43751 0.20625 8.36251 0.225C7.66876 0.39375 7.46251 1.21875 7.25626 2.1C7.18126 2.41875 7.05001 2.9625 6.93751 3.1125L0.562512 5.325C0.243762 5.4375 0.0937624 5.79375 0.243762 6.09375C0.281262 6.1875 1.27501 8.325 2.47501 9.16875ZM20.1375 23.8125C20.1938 23.8125 20.2688 23.7938 20.325 23.775C21.5625 23.325 22.5563 22.3875 23.0625 21.2062C23.1938 20.925 23.0438 20.5875 22.7625 20.475C22.4813 20.3438 22.1438 20.4938 22.0313 20.775C21.6375 21.675 20.8875 22.3875 19.95 22.7438C19.65 22.8563 19.5188 23.175 19.6125 23.475C19.6875 23.6812 19.9125 23.8125 20.1375 23.8125Z" fill="white"/>
</svg>
