<svg width="23" height="22" viewBox="0 0 23 22" fill="none" xmlns="http://www.w3.org/2000/svg">
<path d="M22.9823 8.80944C23.0972 8.23298 22.6375 7.54123 22.063 7.54123L15.513 6.61889L12.5253 0.623679C12.4104 0.393094 12.2955 0.277802 12.0657 0.162509C11.4911 -0.183368 10.8017 0.0472169 10.4569 0.623679L7.58415 6.61889L1.0342 7.54123C0.689468 7.54123 0.459645 7.65652 0.344734 7.8871C-0.114911 8.34827 -0.114911 9.04003 0.344734 9.5012L5.0561 14.1129L3.90699 20.6846C3.90699 20.9152 3.90699 21.1457 4.0219 21.3763C4.36663 21.9528 5.0561 22.1834 5.63066 21.8375L11.4911 18.7246L17.3516 21.8375C17.4665 21.9528 17.6964 21.9528 17.9262 21.9528C18.0411 21.9528 18.0411 21.9528 18.156 21.9528C18.7306 21.8375 19.1902 21.261 19.0753 20.5693L17.9262 13.9976L22.6375 9.38591C22.8674 9.27061 22.9823 9.04003 22.9823 8.80944Z" fill="#FFCF55"/>
</svg>
