<svg width="22" height="22" viewBox="0 0 22 22" fill="none" xmlns="http://www.w3.org/2000/svg">
<path d="M17.2669 15.0417H9.37829C8.6604 15.0367 7.96509 14.7903 7.40417 14.3422C6.84324 13.8942 6.44931 13.2705 6.28572 12.5715L5.02858 7.46117C4.91292 6.98667 4.90699 6.49204 5.01124 6.01489C5.11549 5.53775 5.32718 5.09067 5.63021 4.70764C5.93323 4.32462 6.31962 4.01574 6.75997 3.8045C7.20032 3.59326 7.68305 3.48522 8.17143 3.4886H18.5429C19.0312 3.48522 19.514 3.59326 19.9543 3.8045C20.3947 4.01574 20.7811 4.32462 21.0841 4.70764C21.3871 5.09067 21.5988 5.53775 21.7031 6.01489C21.8073 6.49204 21.8014 6.98667 21.6857 7.46117L20.4286 12.584C20.2588 13.2918 19.8533 13.9207 19.2787 14.3673C18.7041 14.814 17.9946 15.0518 17.2669 15.0417ZM8.13372 5.06003C7.88526 5.06079 7.6402 5.11775 7.41689 5.22666C7.19357 5.33556 6.99779 5.49358 6.84421 5.68889C6.69063 5.88419 6.58323 6.11171 6.53005 6.35441C6.47687 6.5971 6.4793 6.84869 6.53715 7.09032L7.79429 12.2132C7.87943 12.5722 8.08355 12.8918 8.37343 13.1201C8.66331 13.3483 9.0219 13.4718 9.39086 13.4703H17.2669C17.6358 13.4718 17.9944 13.3483 18.2843 13.1201C18.5742 12.8918 18.7783 12.5722 18.8634 12.2132L20.1206 7.09032C20.1797 6.84859 20.183 6.59658 20.1304 6.35336C20.0777 6.11015 19.9704 5.8821 19.8166 5.68649C19.6627 5.49088 19.4664 5.33282 19.2425 5.22429C19.0185 5.11575 18.7729 5.05958 18.524 5.06003H8.13372Z" fill="#46BF8C"/>
<path d="M5.94628 8.80011C5.76677 8.79799 5.5934 8.73446 5.45502 8.62009C5.31664 8.50573 5.2216 8.34743 5.18571 8.17153L4.06057 3.28753C3.95667 2.84262 3.70485 2.44614 3.34631 2.16296C2.98777 1.87978 2.54373 1.72667 2.08685 1.72868H1.06228C0.853896 1.72868 0.654046 1.6459 0.506696 1.49855C0.359346 1.3512 0.276566 1.15135 0.276566 0.942963C0.276566 0.734578 0.359346 0.534729 0.506696 0.387379C0.654046 0.240029 0.853896 0.157248 1.06228 0.157248H2.08685C2.89884 0.154412 3.6878 0.426995 4.32485 0.930476C4.96191 1.43396 5.40942 2.13858 5.59428 2.92925L6.71314 7.81325C6.73735 7.91357 6.74141 8.0177 6.72506 8.1196C6.70871 8.2215 6.67229 8.31914 6.61791 8.40685C6.56353 8.49456 6.49227 8.5706 6.40827 8.63056C6.32426 8.69051 6.22919 8.73319 6.12857 8.75611C6.0695 8.77709 6.00841 8.79183 5.94628 8.80011ZM9.49771 21.843C9.00043 21.843 8.51432 21.6955 8.10085 21.4192C7.68738 21.143 7.36511 20.7503 7.17481 20.2909C6.98451 19.8314 6.93472 19.3259 7.03174 18.8382C7.12875 18.3504 7.36821 17.9024 7.71984 17.5508C8.07147 17.1992 8.51947 16.9597 9.0072 16.8627C9.49492 16.7657 10.0005 16.8155 10.4599 17.0058C10.9193 17.1961 11.312 17.5183 11.5883 17.9318C11.8645 18.3453 12.012 18.8314 12.012 19.3287C12.012 19.9955 11.7471 20.635 11.2756 21.1065C10.8041 21.5781 10.1645 21.843 9.49771 21.843ZM9.49771 18.3607C9.30874 18.3607 9.12402 18.4167 8.9669 18.5217C8.80978 18.6267 8.68732 18.7759 8.61501 18.9505C8.54269 19.1251 8.52377 19.3172 8.56064 19.5025C8.5975 19.6878 8.6885 19.8581 8.82212 19.9917C8.95574 20.1253 9.12598 20.2163 9.31131 20.2532C9.49665 20.29 9.68876 20.2711 9.86334 20.1988C10.0379 20.1265 10.1871 20.004 10.2921 19.8469C10.3971 19.6898 10.4531 19.5051 10.4531 19.3161C10.4531 19.0627 10.3525 18.8197 10.1733 18.6405C9.99412 18.4613 9.75111 18.3607 9.49771 18.3607ZM18.1846 21.843C17.6873 21.843 17.2012 21.6955 16.7877 21.4192C16.3742 21.143 16.052 20.7503 15.8617 20.2909C15.6714 19.8314 15.6216 19.3259 15.7186 18.8382C15.8156 18.3504 16.0551 17.9024 16.4067 17.5508C16.7583 17.1992 17.2063 16.9597 17.6941 16.8627C18.1818 16.7657 18.6873 16.8155 19.1467 17.0058C19.6062 17.1961 19.9988 17.5183 20.2751 17.9318C20.5514 18.3453 20.6989 18.8314 20.6989 19.3287C20.6989 19.9955 20.434 20.635 19.9624 21.1065C19.4909 21.5781 18.8514 21.843 18.1846 21.843ZM18.1846 18.3607C17.9959 18.3619 17.8118 18.419 17.6555 18.5247C17.4992 18.6305 17.3777 18.7801 17.3064 18.9548C17.235 19.1295 17.217 19.3214 17.2546 19.5063C17.2921 19.6912 17.3836 19.8609 17.5175 19.9939C17.6513 20.1269 17.8216 20.2173 18.0068 20.2536C18.1919 20.29 18.3837 20.2707 18.5579 20.1982C18.7321 20.1257 18.881 20.0032 18.9857 19.8463C19.0904 19.6893 19.1463 19.5048 19.1463 19.3161C19.1463 19.1901 19.1214 19.0653 19.073 18.949C19.0245 18.8327 18.9536 18.7271 18.8642 18.6383C18.7748 18.5495 18.6688 18.4792 18.5521 18.4316C18.4355 18.3839 18.3106 18.3598 18.1846 18.3607Z" fill="#46BF8C"/>
<path d="M18.1846 18.3605H7.71257C7.06408 18.3605 6.44214 18.1029 5.98359 17.6443C5.52504 17.1858 5.26743 16.5638 5.26743 15.9154C5.26743 15.2669 5.52504 14.6449 5.98359 14.1864C6.44214 13.7278 7.06408 13.4702 7.71257 13.4702H9.37828C9.58667 13.4702 9.78652 13.553 9.93387 13.7003C10.0812 13.8477 10.164 14.0475 10.164 14.2559C10.164 14.4643 10.0812 14.6642 9.93387 14.8115C9.78652 14.9589 9.58667 15.0416 9.37828 15.0416H7.71257C7.48084 15.0416 7.25861 15.1337 7.09476 15.2975C6.93091 15.4614 6.83885 15.6836 6.83885 15.9154C6.83885 16.1471 6.93091 16.3693 7.09476 16.5332C7.25861 16.697 7.48084 16.7891 7.71257 16.7891H18.1846C18.393 16.7891 18.5928 16.8719 18.7402 17.0192C18.8875 17.1666 18.9703 17.3664 18.9703 17.5748C18.9703 17.7832 18.8875 17.983 18.7402 18.1304C18.5928 18.2777 18.393 18.3605 18.1846 18.3605Z" fill="#46BF8C"/>
</svg>
