<svg width="24" height="24" viewBox="0 0 24 24" fill="none" xmlns="http://www.w3.org/2000/svg">
<path d="M22 3H21V2C21 1.73478 20.8946 1.48043 20.7071 1.29289C20.5196 1.10536 20.2652 1 20 1C19.7348 1 19.4804 1.10536 19.2929 1.29289C19.1054 1.48043 19 1.73478 19 2V3H18C17.7348 3 17.4804 3.10536 17.2929 3.29289C17.1054 3.48043 17 3.73478 17 4C17 4.26522 17.1054 4.51957 17.2929 4.70711C17.4804 4.89464 17.7348 5 18 5H19V6C19 6.26522 19.1054 6.51957 19.2929 6.70711C19.4804 6.89464 19.7348 7 20 7C20.2652 7 20.5196 6.89464 20.7071 6.70711C20.8946 6.51957 21 6.26522 21 6V5H22C22.2652 5 22.5196 4.89464 22.7071 4.70711C22.8946 4.51957 23 4.26522 23 4C23 3.73478 22.8946 3.48043 22.7071 3.29289C22.5196 3.10536 22.2652 3 22 3ZM12.5 13H12C11.7348 13 11.4804 12.8946 11.2929 12.7071C11.1054 12.5196 11 12.2652 11 12C11 11.7348 11.1054 11.4804 11.2929 11.2929C11.4804 11.1054 11.7348 11 12 11H12.5C12.7651 10.9997 13.0193 10.8943 13.2068 10.7068C13.3943 10.5193 13.4997 10.2651 13.5 10V9C13.4997 8.73486 13.3943 8.48066 13.2068 8.29319C13.0193 8.10571 12.7651 8.00026 12.5 8H11.5C11.2349 8.00026 10.9807 8.10571 10.7932 8.29319C10.6057 8.48066 10.5003 8.73486 10.5 9C10.5 9.26522 10.3946 9.51957 10.2071 9.70711C10.0196 9.89464 9.76522 10 9.5 10C9.23478 10 8.98043 9.89464 8.79289 9.70711C8.60536 9.51957 8.5 9.26522 8.5 9C8.50087 8.20462 8.81722 7.44206 9.37964 6.87964C9.94206 6.31722 10.7046 6.00087 11.5 6H12.5C13.2954 6.00087 14.0579 6.31722 14.6204 6.87964C15.1828 7.44206 15.4991 8.20462 15.5 9V10C15.4991 10.7954 15.1828 11.5579 14.6204 12.1204C14.0579 12.6828 13.2954 12.9991 12.5 13Z" fill="#46BF8C"/>
<path d="M12.5 18H11.5C10.7046 17.9991 9.94206 17.6828 9.37964 17.1204C8.81722 16.5579 8.50087 15.7954 8.5 15C8.5 14.7348 8.60536 14.4804 8.79289 14.2929C8.98043 14.1054 9.23478 14 9.5 14C9.76522 14 10.0196 14.1054 10.2071 14.2929C10.3946 14.4804 10.5 14.7348 10.5 15C10.5003 15.2651 10.6057 15.5193 10.7932 15.7068C10.9807 15.8943 11.2349 15.9997 11.5 16H12.5C12.7651 15.9997 13.0193 15.8943 13.2068 15.7068C13.3943 15.5193 13.4997 15.2651 13.5 15V14C13.4997 13.7349 13.3943 13.4807 13.2068 13.2932C13.0193 13.1057 12.7651 13.0003 12.5 13H12C11.7348 13 11.4804 12.8946 11.2929 12.7071C11.1054 12.5196 11 12.2652 11 12C11 11.7348 11.1054 11.4804 11.2929 11.2929C11.4804 11.1054 11.7348 11 12 11H12.5C13.2954 11.0009 14.0579 11.3172 14.6204 11.8796C15.1828 12.4421 15.4991 13.2046 15.5 14V15C15.4991 15.7954 15.1828 16.5579 14.6204 17.1204C14.0579 17.6828 13.2954 17.9991 12.5 18Z" fill="#46BF8C"/>
<path d="M12 23C9.08262 23 6.28473 21.8411 4.22183 19.7782C2.15893 17.7153 1 14.9174 1 12C1 9.08262 2.15893 6.28473 4.22183 4.22183C6.28473 2.15893 9.08262 1 12 1C12.7384 1.00006 13.4749 1.07367 14.1987 1.21973C14.4588 1.27244 14.6872 1.42628 14.8338 1.64742C14.9804 1.86857 15.0332 2.13889 14.9805 2.39893C14.9278 2.65896 14.7739 2.88741 14.5528 3.03401C14.3316 3.18062 14.0613 3.23337 13.8013 3.18066C11.9079 2.7955 9.94079 3.03053 8.19145 3.85093C6.4421 4.67132 5.00358 6.03343 4.08901 7.73544C3.17445 9.43744 2.8325 11.3888 3.11383 13.3004C3.39517 15.2119 4.28482 16.982 5.65097 18.3484C7.01712 19.7147 8.78708 20.6046 10.6986 20.8862C12.6101 21.1678 14.5615 20.8261 16.2637 19.9118C17.9658 18.9975 19.3281 17.5592 20.1488 15.8099C20.9694 14.0607 21.2047 12.0936 20.8198 10.2002C20.7667 9.94029 20.8191 9.66993 20.9653 9.4486C21.1115 9.22727 21.3397 9.0731 21.5996 9.02C21.8595 8.9669 22.1299 9.01923 22.3512 9.16547C22.5726 9.31171 22.7267 9.53989 22.7798 9.7998C23.1044 11.398 23.0698 13.0483 22.6786 14.6315C22.2875 16.2147 21.5494 17.6912 20.5179 18.9544C19.4864 20.2175 18.1871 21.2357 16.714 21.9353C15.2409 22.635 13.6308 22.9986 12 23Z" fill="#46BF8C"/>
</svg>
