<svg width="24" height="25" viewBox="0 0 24 25" fill="none" xmlns="http://www.w3.org/2000/svg">
<path d="M12 9.37579C10.2797 9.37579 8.87578 10.7797 8.87578 12.5C8.87578 14.2203 10.2797 15.6242 12 15.6242C13.7203 15.6242 15.1242 14.2203 15.1242 12.5C15.1242 10.7797 13.7203 9.37579 12 9.37579ZM21.3703 12.5C21.3703 11.2063 21.382 9.92423 21.3094 8.63283C21.2367 7.13283 20.8945 5.80158 19.7977 4.7047C18.6984 3.60548 17.3695 3.26564 15.8695 3.19298C14.5758 3.12033 13.2937 3.13204 12.0023 3.13204C10.7086 3.13204 9.42656 3.12033 8.13516 3.19298C6.63516 3.26564 5.30391 3.60783 4.20703 4.7047C3.10781 5.80392 2.76797 7.13283 2.69531 8.63283C2.62266 9.92658 2.63438 11.2086 2.63438 12.5C2.63438 13.7914 2.62266 15.0758 2.69531 16.3672C2.76797 17.8672 3.11016 19.1985 4.20703 20.2953C5.30625 21.3945 6.63516 21.7344 8.13516 21.807C9.42891 21.8797 10.7109 21.868 12.0023 21.868C13.2961 21.868 14.5781 21.8797 15.8695 21.807C17.3695 21.7344 18.7008 21.3922 19.7977 20.2953C20.8969 19.1961 21.2367 17.8672 21.3094 16.3672C21.3844 15.0758 21.3703 13.7938 21.3703 12.5ZM12 17.307C9.33984 17.307 7.19297 15.1602 7.19297 12.5C7.19297 9.83986 9.33984 7.69298 12 7.69298C14.6602 7.69298 16.807 9.83986 16.807 12.5C16.807 15.1602 14.6602 17.307 12 17.307ZM17.0039 8.61876C16.3828 8.61876 15.8813 8.1172 15.8813 7.49611C15.8813 6.87501 16.3828 6.37345 17.0039 6.37345C17.625 6.37345 18.1266 6.87501 18.1266 7.49611C18.1267 7.64359 18.0978 7.78966 18.0415 7.92595C17.9851 8.06224 17.9024 8.18607 17.7982 8.29036C17.6939 8.39464 17.57 8.47733 17.4337 8.53368C17.2975 8.59004 17.1514 8.61895 17.0039 8.61876Z" fill="#70737C"/>
</svg>
